<?xml version="1.0" encoding="UTF-8"?> <svg xmlns="http://www.w3.org/2000/svg" xmlns:xlink="http://www.w3.org/1999/xlink" width="1440px" height="520px" viewBox="0 0 1440 520" version="1.1"><title>Content 2.0/Meister Wave - Export</title><defs><rect id="path-1" x="0" y="0" width="1440" height="520"></rect><linearGradient x1="7.42313103%" y1="49.3544432%" x2="97.1131431%" y2="48.5181323%" id="linearGradient-3"><stop stop-color="#FFD426" offset="0%"></stop><stop stop-color="#F7578C" offset="37.8712419%"></stop><stop stop-color="#00AAFF" offset="56.4120997%"></stop><stop stop-color="#2BD9D9" offset="79.0497633%"></stop><stop stop-color="#3DCC3D" offset="100%"></stop></linearGradient><linearGradient x1="7.42313103%" y1="49.1653622%" x2="97.1131431%" y2="48.0840992%" id="linearGradient-4"><stop stop-color="#FFD426" offset="0%"></stop><stop stop-color="#F7578C" offset="37.8712419%"></stop><stop stop-color="#00AAFF" offset="56.4120997%"></stop><stop stop-color="#2BD9D9" offset="79.0497633%"></stop><stop stop-color="#3DCC3D" offset="100%"></stop></linearGradient><linearGradient x1="7.42313103%" y1="48.9470337%" x2="97.1131431%" y2="47.582929%" id="linearGradient-5"><stop stop-color="#FFD426" offset="0%"></stop><stop stop-color="#F7578C" offset="37.8712419%"></stop><stop stop-color="#00AAFF" offset="56.4120997%"></stop><stop stop-color="#2BD9D9" offset="79.0497633%"></stop><stop stop-color="#3DCC3D" offset="100%"></stop></linearGradient></defs><g id="Content-2.0/Meister-Wave---Export" stroke="none" stroke-width="1" fill="none" fill-rule="evenodd"><mask id="mask-2" fill="white"><use xlink:href="#path-1"></use></mask><g id="Mask"></g><g id="Group-3" mask="url(#mask-2)"><g transform="translate(725.688383, 255.364116) rotate(-357.000000) translate(-725.688383, -255.364116) translate(-641.412880, -372.889219)" id="Group"><g transform="translate(1367.101264, 628.253336) rotate(12.000000) translate(-1367.101264, -628.253336) translate(46.306992, 266.707936)"><path d="M2140.51191,337.057013 L2096.87131,437.461805 C1891.0922,250.677649 1632.90647,178.91378 1306.45526,358.9498 C980.004036,538.98582 715.368769,586.170421 498.511912,394.149738 L542.152509,293.744946 C747.931627,480.529103 1002.92513,527.367356 1303.63349,353.949285 C1604.34185,180.531213 1923.65505,145.03633 2140.51191,337.057013 Z" id="Path" fill="url(#linearGradient-3)" fill-rule="nonzero" style="mix-blend-mode: multiply;"></path><path d="M2335.54129,342.827368 L2321.97649,483.79442 C2055.05989,207.049813 1723.17443,99.793713 1304.6551,358.543902 C886.135777,617.294092 586.112704,675.134239 304.876928,390.550161 L318.441735,249.58311 C585.358332,526.327716 914.178516,595.253719 1299.6165,345.805538 C1685.05448,96.3573575 2054.30552,58.2432907 2335.54129,342.827368 Z" id="Path" fill="url(#linearGradient-4)" fill-rule="nonzero" opacity="0.300000012" style="mix-blend-mode: multiply;" transform="translate(1320.209111, 361.719555) rotate(1.000000) translate(-1320.209111, -361.719555) "></path><path d="M2631.35867,346.987391 L2615.51293,556.036198 C2267.63684,141.831065 1837.88702,-21.6594792 1300.61692,356.957314 C763.346811,735.574108 376.685481,817.533717 10.2298757,391.507645 L26.0756121,182.458837 C373.9517,596.66397 799.290786,703.224925 1293.96117,337.985637 C1788.63155,-27.2536507 2264.90306,-79.0386815 2631.35867,346.987391 Z" id="Path" fill="url(#linearGradient-5)" fill-rule="nonzero" opacity="0.100000001" style="mix-blend-mode: multiply;" transform="translate(1320.794272, 361.545400) rotate(2.000000) translate(-1320.794272, -361.545400) "></path></g></g></g></g></svg> 